<?xml version="1.0" encoding="utf-8"?>
<!DOCTYPE svg PUBLIC "-//W3C//DTD SVG 1.0//EN" "http://www.w3.org/TR/2001/REC-SVG-20010904/DTD/svg10.dtd">
<svg version="1.0" xmlns="http://www.w3.org/2000/svg" width="1024px" height="1024px" viewBox="0 0 1024 1024" preserveAspectRatio="xMidYMid meet">
 <g fill="#fdfaf8">
  <path d="M0 512 l0 -512 512 0 512 0 0 512 0 512 -512 0 -512 0 0 -512z m201.10 361.05 l1.65 -1.45 0 -19.05 0 -19.05 1.90 0 c1.55 0 2.45 0.50 5.40 3 1.95 1.60 4.85 3.95 6.40 5.10 1.55 1.20 3.25 2.55 3.80 3.05 0.55 0.50 3.10 2.50 5.60 4.45 4.50 3.45 4.65 3.50 5.85 2.75 0.65 -0.45 2.30 -2.25 3.60 -3.95 1.35 -1.75 2.55 -3.25 2.70 -3.40 0.15 -0.15 0.85 -1.05 1.50 -2 0.65 -0.95 1.50 -2.05 1.85 -2.40 0.35 -0.40 1.30 -1.50 2.05 -2.50 0.75 -1.05 1.65 -2.15 2 -2.50 0.35 -0.40 0.95 -1.30 1.35 -2.05 0.60 -1.25 0.60 -1.55 -0.25 -2.90 -0.50 -0.85 -3.15 -3.05 -5.85 -4.90 -5.15 -3.50 -12.40 -8.55 -19.75 -13.75 -4.20 -2.95 -4.40 -3.20 -4.40 -4.90 0.05 -1.80 0.15 -1.90 5.15 -4.80 2.80 -1.60 8.25 -4.80 12.10 -7.05 3.85 -2.25 8.70 -5.10 10.85 -6.30 2.10 -1.20 4.15 -2.75 4.55 -3.45 0.75 -1.20 0.60 -1.55 -2.85 -8.25 -7.95 -15.30 -8.85 -16.75 -10.80 -16.75 -0.45 0 -2.05 0.75 -3.55 1.65 -1.50 0.90 -3.25 2 -3.95 2.40 -0.70 0.40 -1.35 0.80 -1.50 0.95 -0.15 0.15 -1.05 0.65 -2 1.20 -0.95 0.50 -3.10 1.75 -4.75 2.80 -10.20 6.30 -13.40 8 -15.15 8 l-1.85 0 0 -19.95 c0 -25.60 1.35 -23.55 -15.65 -23.55 l-10.95 0 -1.35 1.30 -1.30 1.35 0 20.65 0 20.70 -1.95 0 c-1.45 0 -2.90 -0.65 -6.10 -2.70 -4.75 -3 -15.35 -9.55 -20.95 -12.90 -4.35 -2.60 -5.05 -2.55 -7.10 0.75 -0.70 1.15 -3.35 6.20 -5.90 11.25 -3.15 6.35 -4.45 9.45 -4.25 10.15 0.25 0.80 3.45 3.15 7.85 5.70 0.45 0.30 6.25 3.75 12.85 7.75 l12.05 7.25 0 1.75 c0 1.40 -0.30 1.95 -1.35 2.60 -0.80 0.45 -3.75 2.55 -6.65 4.65 -2.90 2.10 -6.60 4.70 -8.25 5.85 -5.60 3.90 -12.50 9.05 -13.35 10.05 -1.40 1.55 -1.05 2.85 1.70 6.60 8.90 12.10 11.05 14.85 12.20 15.55 1.20 0.80 1.30 0.75 8.10 -4.35 7.75 -5.85 15.55 -11.90 16.50 -12.80 0.35 -0.35 1.55 -0.65 2.65 -0.65 l1.95 0 0 18.50 0 18.45 1.75 1.80 1.80 1.75 11.20 0 11.25 0 1.60 -1.45z m136.75 0.45 c2.65 -1.60 2.80 -2.85 2.60 -22.45 l-0.20 -17.55 1.75 0 c1.35 0 2.25 0.45 3.75 1.90 1.10 1.05 3 2.65 4.25 3.60 3.05 2.40 3.05 2.35 9.25 7.35 7.55 6.05 8 6.30 9.25 5.55 0.60 -0.35 3.35 -3.70 6.10 -7.40 2.80 -3.70 5.20 -6.85 5.35 -7 1.05 -0.90 3.55 -4.60 3.80 -5.60 0.50 -1.90 -1.15 -3.40 -12.75 -11.40 -19.10 -13.20 -17.50 -11.90 -17.50 -13.90 0 -1.75 0.20 -1.95 3.15 -3.55 1.70 -0.95 6.50 -3.70 10.60 -6.15 4.15 -2.45 8.05 -4.75 8.75 -5.15 0.70 -0.40 3.10 -1.80 5.35 -3.10 2.25 -1.35 4.40 -3 4.85 -3.75 0.80 -1.25 0.70 -1.50 -3.75 -10.25 -5.25 -10.30 -7.05 -13.30 -8.65 -14.30 -1.25 -0.85 0.30 -1.70 -23 12.25 -5.75 3.40 -7.85 4.40 -9 4.30 l-1.50 -0.15 0.15 -19.30 c0.10 -16.90 0.05 -19.55 -0.65 -20.90 -1.45 -2.80 -2.65 -3.05 -13.95 -3.05 -10.85 0 -13.25 0.40 -14.35 2.45 -0.30 0.65 -0.50 8.15 -0.50 21 l0 20.05 -1.75 0 c-1.30 0 -4.30 -1.60 -13.35 -7.05 -6.40 -3.90 -12.95 -7.85 -14.50 -8.80 -2.75 -1.65 -2.85 -1.70 -4.10 -0.90 -1.40 0.95 -2.05 1.95 -5.55 8.50 -5.25 9.90 -6.40 12 -6.80 12.45 -0.75 0.80 -0.50 2.80 0.45 3.80 0.75 0.80 9.45 6.20 26.70 16.55 5.15 3.10 5.35 3.25 5.35 4.95 0.05 1.65 -0.25 1.95 -3.85 4.35 -2.10 1.40 -5.20 3.50 -6.85 4.70 -1.65 1.15 -4.35 3 -6 4.15 -1.65 1.15 -3.10 2.20 -3.25 2.35 -0.15 0.15 -2.35 1.70 -4.90 3.45 -5.10 3.45 -6.35 4.85 -5.90 6.65 0.25 1 2.95 4.85 6.90 9.90 0.75 0.95 2 2.60 2.85 3.70 0.85 1.10 2.15 2.80 2.90 3.85 2.10 2.70 3.35 3.15 5.30 1.80 0.90 -0.60 1.70 -1.25 1.85 -1.40 0.25 -0.30 2.10 -1.75 14.45 -11.15 2.10 -1.65 4.35 -3.50 5.10 -4.15 0.85 -0.80 1.85 -1.20 3.10 -1.20 l1.85 0 0 18.90 0 18.90 1.55 1.60 1.55 1.60 11.10 0 c10.05 0 11.20 -0.10 12.65 -1z m136.25 0 c2.40 -1.85 2.50 -2.65 2.30 -21.95 l-0.15 -18.05 2.10 0 c1.15 0 2.15 0.20 2.25 0.40 0.10 0.25 2.05 1.95 4.40 3.80 2.35 1.85 4.60 3.65 5 3.95 0.40 0.35 2.80 2.15 5.25 4.05 2.50 1.90 5.45 4.20 6.60 5.15 1.85 1.50 2.20 1.65 3.25 1.10 1.30 -0.65 1.40 -0.75 6.90 -7.95 2.20 -2.90 4.30 -5.60 4.65 -6 2.50 -3.05 4.35 -5.80 4.35 -6.55 0 -1.40 -2.20 -3.65 -6.15 -6.35 -2 -1.35 -4.60 -3.15 -5.85 -4.05 -2.40 -1.70 -10.95 -7.60 -15.60 -10.85 -2.45 -1.65 -2.85 -2.20 -2.90 -3.55 0 -1.50 0.35 -1.75 9.65 -7.30 9.70 -5.75 16.30 -9.70 19.75 -11.70 4.55 -2.70 4.55 -2.90 0.65 -10.35 -10.20 -19.20 -9.85 -18.80 -14.15 -16.25 -1.45 0.90 -3.30 1.95 -4.15 2.45 -3.70 2.10 -19.65 11.70 -20.85 12.55 -0.75 0.50 -2.15 0.95 -3.15 0.95 l-1.75 0 0 -19.50 c0 -21.75 -0.05 -21.95 -3.25 -23.30 -2.30 -0.95 -21.40 -1 -23.40 -0.05 -2.85 1.30 -2.95 2.05 -2.75 23.40 l0.15 19.45 -1.90 0 c-1.50 0 -3.30 -0.90 -9 -4.40 -3.90 -2.45 -10.35 -6.40 -14.35 -8.80 -8.05 -4.85 -8.45 -4.90 -10.35 -1.35 -1.30 2.25 -4.10 7.60 -8.15 15.20 l-3.10 5.90 1.95 1.80 c1.75 1.65 9.45 6.50 25 15.75 6 3.60 6.10 3.70 6.15 5.50 0 1.70 -0.20 1.95 -3.85 4.45 -10.70 7.20 -25.20 17.85 -25.75 18.90 -1 1.85 -0.55 2.95 3.05 7.55 1.80 2.35 4.95 6.40 6.90 9 4.05 5.40 5.30 6.40 6.55 5.40 0.45 -0.35 0.95 -0.75 1.10 -0.90 0.15 -0.15 2.45 -1.95 5.15 -4 6.30 -4.80 9.80 -7.50 13.70 -10.55 2.50 -1.95 3.50 -2.45 5 -2.45 l1.90 0 0 18.80 0 18.80 1.65 1.45 1.60 1.45 11.20 0 c10.35 0 11.25 -0.05 12.40 -1z m137 0 c2.40 -1.85 2.50 -2.65 2.30 -21.95 l-0.15 -18.05 1.70 0 c1.60 0 4.05 1.50 8.30 5.05 0.55 0.45 3.95 3.20 7.50 6 3.60 2.85 6.80 5.50 7.20 5.85 0.40 0.35 1.20 1 1.85 1.45 1.85 1.20 1.85 1.20 14.30 -15.05 1.85 -2.45 3.40 -4.80 3.40 -5.25 0 -0.90 -1.80 -2.70 -5.50 -5.60 -2.55 -2 -22.20 -15.95 -23.85 -17 -0.85 -0.50 -1.15 -1.15 -1.15 -2.55 0 -1.70 0.20 -1.95 2.90 -3.45 1.55 -0.90 6.10 -3.60 10.10 -5.95 4 -2.40 9.75 -5.75 12.75 -7.50 5.60 -3.20 7.25 -4.55 7.25 -5.90 0 -0.40 -1.05 -2.65 -2.30 -5.05 -1.30 -2.35 -3.60 -6.65 -5.10 -9.55 -3.10 -5.95 -5.30 -9 -6.45 -9 -0.45 0 -7.20 3.85 -14.95 8.50 -11.20 6.70 -14.55 8.50 -15.95 8.50 l-1.75 0 0 -20.05 0 -20.05 -1.70 -1.70 -1.70 -1.70 -11 0 c-10.55 0 -11 0.05 -12.60 1.15 -1.10 0.70 -1.85 1.75 -2.15 2.85 -0.25 0.95 -0.35 10.35 -0.25 20.90 l0.15 19.10 -1.60 0 c-1.10 0 -3.60 -1.25 -8.25 -4.10 -3.65 -2.25 -10.35 -6.30 -14.85 -9.05 l-8.20 -4.95 -1.20 0.95 c-1.35 1 -3.15 4.10 -8.90 15.30 -3.75 7.30 -3.80 7.35 -2.90 8.55 0.50 0.65 1.35 1.50 1.90 1.85 1.30 0.85 17.30 10.60 25.15 15.35 5.75 3.45 6.10 3.80 6.10 5.25 0 1.30 -0.35 1.85 -1.90 2.80 -1 0.70 -4 2.75 -6.60 4.55 -21.35 14.90 -22.45 15.80 -22.50 17.65 0 0.50 0.65 1.75 1.40 2.75 0.80 1 3.40 4.55 5.80 7.85 4.40 6.10 6.35 8.45 7.90 9.70 0.95 0.70 1.60 0.35 6.90 -3.85 3.65 -2.90 3.65 -2.85 8.50 -6.55 2.35 -1.80 5.40 -4.20 6.85 -5.40 2.05 -1.70 2.95 -2.15 4.50 -2.15 l1.90 0 0 18.80 0 18.80 1.65 1.45 1.60 1.45 11.20 0 c10.35 0 11.25 -0.05 12.40 -1z m168.35 -53.45 c1 -1.35 1.05 -2.15 1.05 -13.20 l0 -11.75 -1.55 -1.30 -1.55 -1.30 -39.70 0 c-29.30 0 -40.05 0.15 -40.85 0.60 -2.25 1.20 -2.30 1.55 -2.35 14.10 0 11.65 0.05 12 1.10 13.15 l1.05 1.15 40.90 0 40.90 0 1 -1.45z m109.90 0.35 c1.15 -1.05 1.15 -1.20 1.15 -13.05 l0 -11.95 -1.55 -1.45 -1.55 -1.45 -39.50 0 -39.50 0 -1.45 1.55 -1.45 1.55 0 11.30 0 11.25 1.30 1.70 1.25 1.65 40.05 0 40.10 0 1.15 -1.10z m-543.90 -157.10 l1.15 -1.20 0 -107.40 0 -107.40 -1.10 -0.90 c-1.05 -0.85 -6.15 -0.90 -110 -0.90 l-108.85 0 -1.35 1.05 -1.30 1 0 107.10 0 107.05 1.35 1.40 1.35 1.40 108.80 0 108.85 0 1.10 -1.20z m105.30 0.40 c2 -1.30 2.25 -3.05 2.25 -17.40 0 -9.90 0.15 -13.75 0.60 -14.20 0.45 -0.45 5.60 -0.60 20.05 -0.60 18 0 19.55 0.05 20.15 0.90 0.50 0.65 0.65 4.05 0.70 15.15 l0 14.30 1.25 1.35 1.20 1.30 12.10 0 c11.75 0 12.15 -0.05 13.30 -1.10 l1.15 -1.05 0 -59.40 0 -59.40 -1.10 -0.75 c-1 -0.70 -5.10 -0.80 -34.50 -0.80 -29.65 0 -33.40 -0.10 -34.10 -0.80 -0.70 -0.65 -0.80 -2.75 -0.80 -15 0 -8.85 -0.20 -14.65 -0.50 -15.25 -1.20 -2.25 -2.65 -2.45 -16.50 -2.45 -11.15 0 -13.20 -0.10 -14.25 -0.80 l-1.25 -0.80 0 -13.70 c0 -13.55 0 -13.65 -1.10 -14.40 -0.95 -0.65 -3.05 -0.80 -13.05 -0.80 l-11.90 0 -1.20 1.25 -1.25 1.20 0 28.70 c0 23.95 0.10 28.80 0.70 29.65 0.65 0.90 1.60 0.95 15 1.20 13.50 0.25 14.30 0.30 15 1.25 0.65 0.85 0.75 3.25 0.80 14.45 0 12.20 0.10 13.50 0.90 14.10 0.65 0.50 4 0.65 14.80 0.70 l13.95 0 1.15 1.25 c1.60 1.70 1.80 3.85 1.60 17.35 -0.15 11.70 -0.15 11.85 -1.35 13.10 l-1.20 1.30 -29.60 0 c-29 0 -29.60 0 -30.65 1 -0.60 0.55 -1.20 1.55 -1.35 2.15 -0.15 0.60 -0.20 13.35 -0.15 28.25 l0.15 27.20 1.40 1.20 1.40 1.20 27.50 0 c24.10 0 27.65 -0.10 28.70 -0.80z m285 -31.95 c17.15 -1.40 29.15 -3.85 44.25 -9 27.45 -9.35 51.05 -24.45 71.45 -45.55 11.55 -11.95 20.30 -23.90 28.10 -38.45 4.25 -7.90 11.10 -25.05 13 -32.50 0.20 -0.80 0.70 -2.75 1.10 -4.25 4.30 -15.95 6.40 -37 5.40 -53.25 -0.80 -12.85 -2.50 -24 -5.10 -33.75 -1.60 -5.90 -5.10 -16.95 -5.95 -18.75 -0.25 -0.55 -0.95 -2.20 -1.50 -3.65 -4.70 -12.25 -14.50 -29.05 -23.60 -40.30 l-2.40 -3 0 -46.75 c0 -58.75 -0.25 -63.05 -4.05 -79.55 -8.90 -38.30 -36.10 -73.20 -70.40 -90.45 -11.60 -5.85 -24.65 -10.30 -35.55 -12.10 -12.80 -2.10 -13.35 -2.15 -25.75 -2.15 -10.55 0 -13.65 0.15 -19.75 1.15 -30.80 4.80 -54.20 16.50 -75.65 37.80 -19.35 19.20 -34.10 47.95 -38.35 74.75 -0.35 2.05 -0.85 4.90 -1.15 6.25 -0.30 1.60 -0.55 21.20 -0.70 55.75 -0.10 29.30 -0.25 53.70 -0.40 54.25 -0.10 0.55 -1.85 2.90 -3.80 5.25 -18.85 22.55 -30.90 51.40 -35.05 84 -1 8 -0.85 32.55 0.30 40.50 7.10 50.95 32.25 92.65 73.60 122.30 8.60 6.15 22.95 14.10 32.25 17.95 1.75 0.70 3.75 1.55 4.45 1.85 2.60 1.10 3.40 1.40 8.75 3.20 5.50 1.80 11.40 3.50 14.75 4.20 13.30 2.85 20.15 3.85 31 4.45 10.05 0.60 11 0.60 20.75 -0.20z m-316.25 -190.85 c0.95 -1.05 1 -1.70 1 -15.45 0 -14.30 0 -14.40 1.10 -15.15 0.95 -0.70 3.45 -0.80 16.95 -0.80 14.10 0 15.90 0.10 16.50 0.85 0.55 0.60 0.75 4.05 0.95 15.40 0.20 11.35 0.40 14.80 0.95 15.40 0.60 0.75 2.40 0.85 16.30 0.85 15.20 0 15.60 -0.05 16.55 -1.05 0.85 -0.95 0.95 -2.20 1.20 -15.45 0.20 -11.15 0.40 -14.55 0.95 -15.15 0.60 -0.75 2.45 -0.85 17.05 -0.85 9.05 0 16.80 -0.15 17.25 -0.30 2 -0.80 2.25 -2.60 2.25 -15.60 0 -11.50 -0.05 -12.50 -0.95 -13.45 -0.90 -0.95 -1.75 -1.05 -14.90 -1.40 -8.20 -0.20 -14.15 -0.55 -14.50 -0.85 -0.50 -0.40 -0.65 -3.90 -0.65 -14.30 0 -13.45 -0.05 -13.80 -1.10 -14.95 l-1.05 -1.15 -20.40 0 c-18.30 0 -20.40 -0.10 -21 -0.85 -0.55 -0.60 -0.75 -3.90 -0.95 -14.50 l-0.25 -13.70 -1.25 -0.95 c-1.15 -0.90 -2.20 -1 -13.45 -1 -11.90 0 -12.25 0.05 -13.40 1.10 l-1.15 1.05 0 28.95 0 28.95 -1.10 1.10 c-1.15 1.10 -1.30 1.15 -14.80 1.10 -12.50 0 -13.75 0.05 -14.65 0.90 -0.90 0.85 -0.95 1.80 -0.95 30.75 0 16.40 0.20 30.10 0.40 30.40 0.65 1 1.85 1.10 13.95 1.15 11.85 0.05 12.15 0.05 13.15 -1.05z m-266.10 -32.55 c1.05 -1.15 1.10 -1.50 1.10 -14.30 0.05 -11.70 -0.05 -13.30 -0.80 -14.10 -0.80 -0.90 -1.80 -0.95 -14.20 -0.95 -10.70 0 -13.50 0.15 -14.30 0.70 -0.90 0.70 -0.95 1.45 -0.95 14.20 0 12.55 0.05 13.55 0.95 14.55 0.90 1 1.35 1.05 14.05 1.05 13 0 13.10 0 14.15 -1.15z m63.35 0.35 c1 -0.75 1 -1.40 1.15 -29.90 0.10 -28.20 0.10 -29.20 -0.85 -30.35 l-0.95 -1.20 -12.85 0 -12.80 0 -0.95 1.25 c-0.95 1.20 -1 2.40 -1 30.05 0 28.25 0 28.80 1 29.85 1 1.10 1.30 1.10 13.65 1.10 10.45 -0.05 12.75 -0.15 13.60 -0.80z m95.25 -0.20 c0.65 -0.40 0.80 -2.80 1 -14.90 0.20 -12.60 0.35 -14.55 1.10 -15.25 0.75 -0.75 2.60 -0.85 18.20 -0.85 15.45 0 17.45 -0.10 18.30 -0.85 0.85 -0.75 0.90 -1.85 0.90 -14.30 0 -12.25 -0.10 -13.55 -0.85 -14.15 -0.75 -0.55 -7.10 -0.65 -33 -0.70 l-32.10 0 -0.75 1.10 c-0.70 0.95 -0.80 3.20 -0.80 14.65 0 10.90 -0.15 13.75 -0.70 14.55 -0.65 0.90 -1.60 0.95 -14.95 1.20 -11 0.20 -14.40 0.40 -15 0.95 -0.75 0.60 -0.85 2.20 -0.85 13.75 0 12.50 0.05 13.15 1 14.20 l1.05 1.10 28.35 0 c16.95 0 28.65 -0.20 29.10 -0.50z m-0.55 -97.45 l1.05 -1.45 0 -92.20 c0 -92.10 0 -92.20 -1 -93.30 l-1.05 -1.10 -92.20 0 c-91.60 0 -92.25 0 -93.25 1 -1 1 -1 1.65 -1 93.60 l0 92.60 1.10 1.15 1.05 1.15 92.15 0 92.15 0 1 -1.45z m76.60 0.60 c0.55 -0.65 0.70 -3.60 0.70 -14.20 0 -12.20 0.10 -13.50 0.90 -14.30 0.80 -0.80 2.35 -0.95 15.05 -1.15 10.90 -0.20 14.35 -0.40 14.95 -0.95 0.75 -0.55 0.85 -2.40 0.95 -14.70 l0.15 -14.05 1.25 -0.65 c0.95 -0.50 6.05 -0.65 20.90 -0.65 l19.65 0 1.20 1.25 1.25 1.20 0 13.05 0 13.05 1.25 1.20 1.20 1.25 12.40 0 c10.45 0 12.60 -0.10 13.55 -0.80 1.10 -0.75 1.10 -0.85 1.10 -14.50 0 -12.20 0.10 -13.85 0.85 -14.60 0.70 -0.75 2.70 -0.90 16.20 -1.10 8.45 -0.15 15.45 -0.35 15.60 -0.50 1.15 -1.30 1.35 -3.35 1.35 -14.60 0 -10.20 -0.15 -12.35 -0.80 -13.30 -0.75 -1.10 -0.85 -1.10 -15.65 -1.10 -14.35 0 -14.95 -0.05 -16.25 -1.05 l-1.30 -1 0 -31.90 c0 -31.35 0 -31.90 1 -32.95 1.05 -1.10 1.20 -1.10 18.35 -1.10 17.10 0 17.35 0 18.50 -1.10 1.15 -1.05 1.15 -1.15 1.15 -14.20 l0 -13.15 -1.30 -1 c-1.30 -1.05 -1.70 -1.05 -33.05 -1.05 l-31.75 0 -1.45 1.45 -1.45 1.45 0 46.65 0 46.65 -1.10 1.15 -1.05 1.15 -50.40 0 -50.40 0 -0.75 1.10 c-0.70 1 -0.80 6.05 -0.80 44.40 0 38.35 0.10 43.40 0.80 44.40 0.75 1.10 0.90 1.10 13.65 1.10 11.40 0 13 -0.10 13.60 -0.85z m31 -124.60 l1.20 -0.95 0.10 -30.20 c0.15 -29.15 0.10 -30.20 -0.85 -31.40 l-0.95 -1.25 -27.95 -0.15 c-27.70 -0.10 -27.95 -0.10 -29.25 0.90 l-1.35 1.05 0 12.60 c0 6.95 0.15 13.10 0.30 13.65 0.55 1.95 2.10 2.20 15.40 2.20 12.20 0 12.70 0.05 13.60 1.05 0.90 0.95 0.95 2.20 1.20 16.60 l0.25 15.55 1.25 0.65 c0.90 0.45 4.65 0.65 13.55 0.65 11.40 0 12.45 -0.05 13.50 -0.95z"/>
  <path d="M156.70 633.90 c-0.60 -0.25 -1.35 -1.05 -1.65 -1.70 -0.40 -0.90 -0.55 -22.55 -0.55 -77.60 l0 -76.35 1.20 -1.35 1.15 -1.40 78.35 0 78.30 0 1 1.65 c1 1.60 1 2.70 1 78 l0 76.45 -1.45 1.45 -1.45 1.45 -77.45 -0.05 c-52.20 0 -77.75 -0.20 -78.45 -0.55z m123.50 -34 c0.70 -1 0.80 -6.10 0.80 -45.10 l0 -44 -1.10 -1.15 -1.05 -1.15 -43.85 0 -43.85 0 -1.35 1.30 -1.30 1.35 0 43.10 c0 45.25 0 45 2.10 46.30 0.35 0.25 20.50 0.45 44.75 0.45 l44.10 0 0.75 -1.10z"/>
  <path d="M679.60 563.25 c-3.10 -2.60 -3.80 -6.70 -2.35 -13.50 0.45 -1.95 1 -4.50 1.25 -5.75 0.40 -2.10 1.55 -7.40 4.95 -23.35 0.85 -3.80 2.30 -10.70 3.30 -15.40 0.95 -4.65 2 -9.40 2.25 -10.50 0.60 -2.70 3.25 -15.05 4.25 -20 0.80 -3.80 0.75 -4.05 -0.10 -4.65 -11.75 -8.20 -17.10 -13.55 -22.35 -22.30 -8 -13.30 -10.35 -31.40 -6.20 -47.80 4.65 -18.45 18.80 -34.35 37.05 -41.55 7.25 -2.90 11.55 -3.60 22.60 -3.80 10.30 -0.20 10.60 -0.20 16.30 1.25 6.45 1.65 11.95 3.90 17.35 7.05 15.65 9.15 26.75 26.15 29.10 44.60 2.50 19.95 -3.45 38.35 -16.65 51.50 -4.05 4.05 -10.10 8.90 -12.55 10 -1.60 0.75 -1.60 0.40 0.10 8.20 3.50 15.85 7.70 34.75 8.10 36.25 0.25 0.95 2.35 10.10 4.60 20.25 3.40 15.35 4.10 19.25 4.15 22.90 l0 4.45 -1.85 1.70 -1.90 1.70 -44.95 0 -44.95 0 -1.50 -1.25z"/>
  <path d="M640.15 302.50 l-1.10 -0.45 -0.15 -23.40 c-0.20 -31.50 0.15 -37.65 2.90 -48.30 1.75 -6.85 5.70 -16.10 9.70 -22.60 6.30 -10.25 16.95 -20.95 27.10 -27.15 7.40 -4.55 17.50 -8.75 24.20 -10.10 10.20 -2.05 11.15 -2.15 21.70 -2.15 10.70 0 11.30 0.05 21.25 2.20 15.45 3.30 32.40 13.55 43.40 26.20 9.70 11.15 16.10 24.10 19.45 39.35 1.10 5 1.10 6.20 1.30 35.80 l0.15 30.60 -2.45 0 c-2 0 -3.55 -0.60 -9.15 -3.40 -11 -5.65 -22 -9.60 -34.45 -12.55 -14.30 -3.35 -22.95 -4.25 -39.50 -4.25 -13.10 0 -16.50 0.30 -29.25 2.50 -8.95 1.50 -13.10 2.60 -23.25 6.05 -9.30 3.10 -17.75 6.65 -23.95 9.95 -4.15 2.20 -5.80 2.55 -7.90 1.70z"/>
  <path d="M155.80 280.95 l-1.30 -1.55 0 -61.20 c0 -63.25 0 -62.55 1.95 -64.05 0.60 -0.50 14.65 -0.60 61.85 -0.65 l61.05 0 1.05 1.15 1.10 1.15 0 62.25 0 62.30 -1.15 1.05 -1.15 1.10 -61.05 0 -61.05 0 -1.30 -1.55z m91.70 -32.95 c1 -1 1 -1.65 1 -30.35 0 -26.60 -0.10 -29.40 -0.85 -30.25 -0.75 -0.85 -2.30 -0.90 -28.70 -0.90 l-27.95 0 -1.25 1.10 -1.25 1.10 0 28.40 c0 24.15 0.10 28.65 0.75 29.90 0.40 0.75 1 1.50 1.35 1.65 0.35 0.15 13.10 0.30 28.30 0.30 26.95 0.05 27.60 0.05 28.60 -0.95z"/>
 </g>
 <g fill="#171e1e">
  <path d="M173.75 874.25 l-1.75 -1.80 0 -18.45 c0 -11.05 -0.20 -18.50 -0.45 -18.50 -0.25 0 -0.80 0.30 -1.15 0.65 -0.95 0.90 -8.75 6.95 -16.45 12.75 -9.50 7.20 -9.75 7.15 -16.60 -2.05 -10.55 -14.20 -10.40 -13.90 -9.35 -17.05 0.55 -1.65 4.55 -4.95 14.25 -11.70 1.65 -1.15 5.70 -4 9 -6.40 3.30 -2.35 6.35 -4.45 6.75 -4.70 0.40 -0.25 0.65 -0.55 0.50 -0.65 -0.20 -0.20 -21 -12.80 -24.90 -15.10 -6.75 -4 -8.60 -5.70 -8.60 -8 0 -0.90 8.80 -18.70 10.90 -22.10 1.40 -2.20 2.85 -3.15 4.90 -3.15 1.20 0 15.30 8.25 27.15 15.95 1.75 1.10 3.40 2.05 3.65 2.05 0.20 0 0.40 -9.30 0.40 -20.70 l0 -20.65 1.30 -1.35 1.35 -1.30 12.45 0 c13.20 0 14 0.10 16.15 2.50 0.95 1.05 1 1.80 1 21.05 0 10.95 0.15 19.95 0.35 19.95 0.30 0 7.95 -4.45 13.65 -8 1.65 -1.05 3.80 -2.30 4.75 -2.80 0.95 -0.55 1.85 -1.05 2 -1.20 0.15 -0.15 0.80 -0.55 1.50 -0.95 0.70 -0.40 2.50 -1.50 4 -2.40 5.85 -3.60 7.75 -2.90 11.50 4.10 6.30 11.60 9.45 18.15 9.50 19.40 0 2.35 -1.40 4 -5.40 6.30 -2.15 1.20 -7 4.05 -10.85 6.30 -3.85 2.25 -9.30 5.45 -12.10 7.05 -2.80 1.60 -5.10 3.10 -5.15 3.30 0 0.15 1.95 1.70 4.40 3.40 7.35 5.20 14.60 10.25 19.75 13.75 5.15 3.55 6.85 5.50 6.85 8 0 1.30 -1.50 4.50 -2.45 5.25 -0.15 0.15 -0.90 1.05 -1.65 2.10 -0.75 1 -1.70 2.10 -2.05 2.50 -0.35 0.35 -1.20 1.45 -1.85 2.40 -0.65 0.95 -1.35 1.85 -1.50 2 -0.15 0.15 -1.35 1.65 -2.65 3.35 -2.90 3.80 -4.05 4.65 -6.35 4.65 -1.70 0 -3.95 -1.50 -11.80 -7.85 -1.05 -0.90 -4.35 -3.50 -7.30 -5.85 -2.90 -2.35 -5.45 -4.50 -5.65 -4.80 -0.15 -0.25 -0.60 -0.50 -0.90 -0.50 -0.45 0 -0.60 4.65 -0.60 19.05 l0 19.05 -1.65 1.45 -1.60 1.45 -12.75 0 -12.70 0 -1.80 -1.75z"/>
  <path d="M311.05 874.40 l-1.55 -1.60 0 -18.90 c0 -10.40 -0.15 -18.90 -0.35 -18.90 -0.20 0 -0.90 0.55 -1.60 1.20 -0.75 0.65 -3 2.50 -5.10 4.15 -12.35 9.40 -14.20 10.85 -14.45 11.15 -0.15 0.15 -0.95 0.80 -1.85 1.40 -1.70 1.20 -3.95 1.40 -5.75 0.55 -1.10 -0.50 -1.70 -1.20 -5.45 -6.20 -0.80 -1.10 -1.75 -2.35 -2.10 -2.75 -2.55 -3.10 -6.85 -9.05 -7.55 -10.45 -0.95 -1.85 -0.80 -4.10 0.45 -5.85 0.40 -0.60 2.80 -2.50 5.35 -4.25 2.55 -1.70 4.75 -3.25 4.90 -3.40 0.15 -0.15 1.60 -1.20 3.25 -2.35 1.65 -1.15 4.35 -3 6 -4.15 1.65 -1.20 4.75 -3.30 6.85 -4.70 2.15 -1.45 3.85 -2.70 3.85 -2.85 0 -0.15 -2.40 -1.70 -5.35 -3.45 -17.75 -10.65 -25.95 -15.75 -26.85 -16.70 -1.25 -1.35 -1.30 -5 -0.15 -6.85 1 -1.50 5.20 -9.35 7.80 -14.45 3.70 -7.35 6.35 -8.55 11.60 -5.35 13.80 8.40 26.10 15.80 26.25 15.80 0.15 0 0.25 -9 0.25 -20 0 -13.15 0.15 -20.35 0.50 -21 1.15 -2.15 3.35 -2.50 15.85 -2.50 12.90 0 13.95 0.20 15.40 3 0.65 1.25 0.75 4.35 0.75 20.60 0 10.55 0 19.30 0 19.50 0 0.20 2.55 -1.15 5.65 -3.05 16.15 -9.75 23.75 -14.05 25.05 -14.05 3.10 0 4.40 1.75 11.25 15.15 2.75 5.40 4.55 9.55 4.55 10.45 0 2.45 -1.35 4 -5.65 6.55 -2.25 1.30 -4.65 2.70 -5.35 3.10 -0.70 0.40 -4.60 2.70 -8.75 5.15 -4.10 2.45 -8.90 5.20 -10.60 6.15 -1.75 0.95 -3.15 1.85 -3.15 2.05 0 0.20 3.20 2.55 7.10 5.25 3.90 2.70 8.60 5.90 10.40 7.15 13.15 9.10 14 9.95 12.90 13.80 -0.40 1.55 -2.65 5.10 -3.95 6.20 -0.15 0.15 -2.35 3.05 -4.90 6.50 -5.45 7.30 -6.70 8.50 -8.95 8.50 -2 0 -2.80 -0.50 -9.85 -6.15 -6.20 -5 -6.20 -4.95 -9.25 -7.35 -1.25 -0.95 -3.15 -2.55 -4.25 -3.60 -1.10 -1.05 -2.10 -1.90 -2.25 -1.90 -0.15 0 -0.20 7.95 -0.10 17.60 0.20 19.60 0.05 20.85 -2.55 22.40 -1.45 0.90 -2.60 1 -14.15 1 l-12.60 0 -1.55 -1.60z"/>
  <path d="M447.40 874.55 l-1.65 -1.45 0 -18.80 c0 -10.35 -0.15 -18.80 -0.40 -18.80 -0.20 0 -1.75 1.10 -3.50 2.45 -3.75 2.95 -7.15 5.55 -13.70 10.55 -2.70 2.05 -5.35 4.15 -5.85 4.60 -1.40 1.25 -4.25 1.15 -5.90 -0.25 -0.70 -0.60 -3.10 -3.45 -5.25 -6.35 -2.15 -2.90 -5.10 -6.75 -6.55 -8.55 -3.05 -3.90 -3.80 -6.85 -2.35 -9.30 0.75 -1.25 14.70 -11.55 25.90 -19.10 2.10 -1.45 3.85 -2.80 3.85 -2.95 -0.05 -0.20 -2.80 -2 -6.15 -4 -15.50 -9.20 -23.25 -14.10 -24.95 -15.70 -3.15 -2.90 -3.40 -2.15 7.30 -22.40 4.35 -8.25 5.10 -8.35 15.35 -2.15 3.95 2.35 10.40 6.30 14.30 8.75 3.95 2.40 7.30 4.40 7.50 4.40 0.25 0 0.35 -8.80 0.25 -19.50 -0.15 -21.40 -0.05 -22.05 2.75 -23.35 2.05 -0.95 24.10 -0.90 26.40 0.05 3.20 1.35 3.25 1.55 3.25 23.30 0 10.70 0.10 19.50 0.25 19.50 0.15 0 0.90 -0.45 1.65 -0.95 1.20 -0.85 17.15 -10.45 20.85 -12.55 0.85 -0.50 2.70 -1.55 4.15 -2.45 5.20 -3.05 7.45 -1.90 11.65 5.95 8.05 14.95 9.05 17.15 8.80 19.10 -0.30 2.15 -0.80 2.75 -3.75 4.45 -2.30 1.30 -5.25 3.05 -19.95 11.80 l-9.65 5.75 3.90 2.75 c2.10 1.55 5.75 4.10 8.10 5.70 2.35 1.60 5.25 3.65 6.50 4.50 1.25 0.85 3.60 2.50 5.25 3.60 8.85 6 9.15 8.20 2.40 16.35 -0.35 0.40 -2.45 3.10 -4.65 6 -5.50 7.15 -5.60 7.30 -6.85 7.95 -2 1.05 -4.15 0.65 -6.35 -1.15 -1.15 -0.90 -4.05 -3.20 -6.55 -5.10 -2.45 -1.90 -4.85 -3.70 -5.25 -4.05 -0.40 -0.30 -2.65 -2.10 -5 -3.95 -2.35 -1.85 -4.30 -3.55 -4.40 -3.80 -0.10 -0.20 -0.45 -0.40 -0.75 -0.40 -0.45 0 -0.55 4.55 -0.45 18.10 0.15 19.30 0.05 20.10 -2.30 21.90 -1.15 0.95 -2.05 1 -13.90 1 l-12.70 0 -1.60 -1.45z"/>
  <path d="M584.40 874.55 l-1.65 -1.45 0 -18.80 c0 -10.35 -0.20 -18.80 -0.40 -18.80 -0.25 0 -1.60 0.95 -3 2.15 -1.45 1.20 -4.50 3.60 -6.85 5.40 -4.85 3.70 -4.85 3.65 -8.50 6.55 -4.70 3.75 -5.85 4.40 -7.65 4.40 -2.25 0 -4.20 -1.95 -10.20 -10.25 -2.35 -3.30 -4.95 -6.85 -5.75 -7.85 -1.70 -2.20 -1.95 -5.95 -0.50 -7.70 0.85 -1.10 17.30 -12.90 28.60 -20.50 l1.60 -1.10 -5.95 -3.55 c-17 -10.25 -25.50 -15.55 -26.75 -16.80 -2.25 -2.25 -1.95 -3.80 2.50 -12.45 7.85 -15.10 8.35 -15.80 11.40 -15.80 1.75 0 3.60 1.05 24.60 13.90 3.70 2.25 6.75 4.10 6.75 4.10 0.05 0 0.05 -8.65 -0.05 -19.20 -0.10 -10.60 0.05 -20 0.30 -20.90 0.25 -1 1.05 -2.10 2.10 -2.75 1.60 -1.10 2 -1.15 14.10 -1.15 l12.50 0 1.70 1.70 1.70 1.70 0 20.05 c0 11.05 0.10 20.05 0.25 20.05 0.15 0 6.80 -3.95 14.85 -8.75 10.20 -6.10 15.05 -8.75 16.10 -8.75 2.10 0 4.25 2.60 7.90 9.50 8.70 16.45 8.50 15.95 7.30 18.15 -0.85 1.65 -1.25 1.95 -7.15 5.35 -3.05 1.75 -8.75 5.10 -12.75 7.50 -4 2.35 -8.55 5.05 -10.10 5.95 -1.60 0.90 -2.90 1.80 -2.90 1.95 0 0.20 0.50 0.65 1.15 1.05 1.65 1.05 21.30 15 23.85 17 4.95 3.85 5.50 4.55 5.50 7.10 0 2.10 -0.30 2.75 -3.60 7 -12.05 15.75 -11.75 15.40 -14.45 15.45 -1.55 0 -3.70 -1.10 -4.95 -2.50 -0.15 -0.15 -3.15 -2.60 -6.75 -5.45 -3.55 -2.85 -6.95 -5.55 -7.50 -6 -1.70 -1.45 -6.60 -5.05 -6.80 -5.05 -0.10 0 -0.15 8.15 -0.05 18.10 0.15 19.30 0.05 20.10 -2.30 21.90 -1.15 0.95 -2.05 1 -13.90 1 l-12.70 0 -1.60 -1.45z"/>
  <path d="M694.10 821.85 c-1 -1.10 -1.05 -1.60 -1.15 -14.40 -0.05 -14.20 0.05 -14.85 2.40 -15.90 0.85 -0.40 14.15 -0.55 42.40 -0.55 l41.15 0 1.55 1.30 1.55 1.30 0 13.25 c0 12.60 -0.05 13.30 -1.05 14.70 l-1 1.45 -42.40 0 -42.40 0 -1.05 -1.15z"/>
  <path d="M805.30 821.35 l-1.30 -1.70 0 -12.75 0 -12.80 1.45 -1.55 1.45 -1.55 41 0 41 0 1.55 1.45 1.55 1.45 0 13.45 c0 13.45 0 13.50 -1.15 14.55 l-1.15 1.10 -41.60 0 -41.55 0 -1.25 -1.65z"/>
  <path d="M123.85 664.60 l-1.35 -1.40 0 -108.50 0 -108.45 1.25 -1.10 1.30 -1.15 110.40 0 c107.05 0 110.45 0.05 111.60 0.95 l1.15 0.90 0 108.80 0 108.80 -1.20 1.30 -1.15 1.25 -110.35 0 -110.30 0 -1.35 -1.40z m188.70 -33.05 l1.45 -1.45 0 -74.90 c0 -73.95 0 -74.95 -1 -76.55 l-1 -1.65 -76.80 0 -76.85 0 -1.15 1.40 -1.20 1.35 0 74.85 c0 53.95 0.15 75.20 0.55 76.10 0.30 0.65 1.05 1.45 1.65 1.70 0.70 0.35 25.75 0.55 76.95 0.55 l75.95 0.05 1.45 -1.45z"/>
  <path d="M189.10 602.05 c-2.10 -1.30 -2.10 -0.95 -2.10 -47.80 l0 -44.60 1.30 -1.35 1.35 -1.30 45.35 0 45.35 0 1.05 1.15 1.10 1.15 0 45.50 c0 40.35 -0.10 45.60 -0.80 46.60 l-0.75 1.10 -45.60 0 c-25.10 0 -45.90 -0.20 -46.25 -0.45z"/>
  <path d="M391.65 664.80 l-1.40 -1.20 -0.15 -28.70 c-0.05 -15.75 0 -29.15 0.15 -29.75 0.15 -0.60 0.75 -1.60 1.35 -2.15 1.05 -1 1.65 -1 30.65 -1 l29.60 0 1.20 -1.30 c1.20 -1.25 1.20 -1.45 1.35 -11.60 0.20 -11.95 -0.05 -14.15 -1.60 -15.85 l-1.15 -1.25 -13.95 0 c-10.80 -0.05 -14.15 -0.20 -14.80 -0.70 -0.80 -0.60 -0.90 -1.90 -0.90 -14.10 -0.05 -11.20 -0.15 -13.60 -0.80 -14.45 -0.70 -0.95 -1.50 -1 -15 -1.25 -13.40 -0.25 -14.35 -0.30 -15 -1.20 -0.60 -0.85 -0.70 -5.90 -0.70 -31.15 l0 -30.20 1.25 -1.20 1.20 -1.25 13.40 0 c11.35 0 13.60 0.10 14.55 0.80 1.10 0.75 1.10 0.85 1.10 14.40 l0 13.70 1.25 0.80 c1.05 0.70 3.10 0.80 14.25 0.80 13.85 0 15.30 0.20 16.50 2.45 0.30 0.60 0.50 6.40 0.50 15.25 0 12.25 0.10 14.35 0.80 15 0.70 0.70 4.45 0.80 34.10 0.80 29.40 0 33.50 0.10 34.50 0.80 l1.10 0.75 0 60.90 0 60.90 -1.15 1.05 c-1.15 1.05 -1.50 1.10 -14.80 1.10 l-13.60 0 -1.20 -1.30 -1.25 -1.35 0 -14.30 c-0.05 -11.10 -0.20 -14.50 -0.70 -15.15 -0.60 -0.85 -2.10 -0.90 -18.65 -0.90 -13.30 0 -18.10 0.15 -18.55 0.60 -0.45 0.45 -0.60 4.30 -0.60 14.20 0 8.35 -0.20 14.15 -0.55 15.10 -1.10 3.20 0.05 3.10 -31.90 3.10 l-29 0 -1.40 -1.20z"/>
  <path d="M392 443.15 c-0.40 -0.15 -0.90 -0.55 -1.10 -0.85 -0.20 -0.30 -0.40 -14.65 -0.40 -31.90 0 -31 0 -31.35 1.05 -32.30 0.95 -0.90 1.90 -1 14.85 -1 13.65 0 13.80 0 14.70 -1.10 0.85 -1.05 0.90 -2.95 0.90 -29.95 l0 -28.90 1.15 -1.05 c1.15 -1.10 1.50 -1.10 14.90 -1.10 12.75 0 13.80 0.10 14.95 1 l1.25 0.95 0.25 13.70 c0.20 10.60 0.40 13.90 0.95 14.50 0.60 0.75 2.70 0.85 21 0.85 l20.40 0 1.05 1.15 c1.05 1.15 1.10 1.50 1.10 14.95 0 10.95 0.15 13.90 0.65 14.35 0.45 0.35 5.25 0.60 14.30 0.70 13.50 0.15 13.65 0.15 14.85 1.30 l1.20 1.15 0 14 c0 14.60 -0.25 16.30 -2.25 17.10 -0.45 0.15 -8.25 0.30 -17.30 0.30 l-16.45 0 -0.70 1.15 c-0.60 0.90 -0.75 3.85 -0.90 15.15 -0.15 13.05 -0.20 14.20 -1.10 15.15 -0.95 1.05 -1.30 1.05 -18.05 1.05 -15.30 0 -17.20 -0.10 -17.80 -0.85 -0.55 -0.60 -0.75 -4.05 -0.95 -15.40 -0.20 -11.35 -0.40 -14.80 -0.95 -15.40 -0.60 -0.75 -2.30 -0.85 -15 -0.85 -12.15 0 -14.50 0.10 -15.45 0.80 -1.10 0.75 -1.10 0.85 -1.10 15.15 0 13.75 -0.05 14.40 -1 15.45 -1 1.10 -1.25 1.10 -14.65 1.05 -7.50 0 -13.95 -0.15 -14.35 -0.30z"/>
  <path d="M123.70 409.95 c-0.90 -1 -0.95 -2 -0.95 -16.05 0 -14.25 0.05 -15 0.95 -15.70 0.80 -0.55 3.80 -0.70 15.80 -0.70 14.45 0 14.85 0.05 15.80 1.05 0.90 1 0.95 1.90 0.80 15.60 -0.15 14.05 -0.20 14.65 -1.20 15.70 -1.05 1.15 -1.15 1.15 -15.65 1.15 -14.20 0 -14.60 -0.05 -15.55 -1.05z"/>
  <path d="M188 409.90 c-1 -1.05 -1 -1.60 -1 -31.35 0 -29.10 0.05 -30.35 1 -31.55 l0.95 -1.25 14.30 0 14.35 0 0.95 1.20 c0.95 1.15 0.95 2.15 0.85 31.85 -0.15 30 -0.15 30.65 -1.15 31.40 -0.85 0.65 -3.30 0.75 -15.10 0.80 -13.90 0 -14.15 0 -15.15 -1.10z"/>
  <path d="M253.10 410.30 c-2 -1.10 -2.05 -1.60 -2.10 -16.65 l0 -14.65 1.15 -0.70 c0.90 -0.60 3.90 -0.75 15 -0.90 13.10 -0.15 13.95 -0.20 14.65 -1.10 0.55 -0.80 0.70 -3.65 0.70 -14.55 0 -11.45 0.10 -13.70 0.80 -14.65 l0.75 -1.10 33.60 0 c27.15 0.05 33.75 0.15 34.50 0.70 0.75 0.60 0.85 1.95 0.85 15.65 0 13.90 -0.05 15.05 -0.90 15.80 -0.85 0.75 -2.85 0.85 -18.30 0.85 -15.60 0 -17.45 0.10 -18.20 0.85 -0.75 0.75 -0.85 2.45 -1 14.35 -0.05 7.45 -0.25 14.05 -0.35 14.65 -0.15 0.60 -0.65 1.20 -1.15 1.35 -1.60 0.50 -59.10 0.60 -60 0.10z"/>
  <path d="M123.60 312.85 l-1.10 -1.15 0 -93.45 c-0.05 -51.45 -0.05 -93.80 -0.05 -94.10 0.05 -0.35 0.50 -1.10 1.05 -1.65 1 -1 1.65 -1 94.75 -1 l93.70 0 1.05 1.10 c1 1.10 1 1.20 1 94.80 l0 93.70 -1.05 1.45 -1 1.45 -93.65 0 -93.65 0 -1.05 -1.15z m155.25 -32.95 l1.15 -1.05 0 -60.80 0 -60.75 -1.10 -1.15 -1.05 -1.15 -59.55 0 c-46.05 0.05 -59.75 0.15 -60.35 0.65 -1.95 1.50 -1.95 0.85 -1.95 62.55 l0 59.70 1.30 1.55 1.30 1.55 59.55 0 59.55 0 1.15 -1.10z"/>
  <path d="M189.10 250.15 c-0.35 -0.15 -0.95 -0.90 -1.35 -1.65 -0.65 -1.25 -0.75 -5.95 -0.75 -31.40 l0 -29.90 1.25 -1.10 1.25 -1.10 29.45 0 c27.85 0 29.45 0.05 30.20 0.90 0.75 0.85 0.85 3.75 0.85 31.75 0 30.20 0 30.85 -1 31.85 -1 1 -1.65 1 -30.10 0.95 -16.05 0 -29.45 -0.15 -29.80 -0.30z"/>
  <path d="M359.30 312.90 c-0.70 -1 -0.80 -6.20 -0.80 -45.90 0 -39.70 0.10 -44.90 0.80 -45.90 l0.75 -1.10 50.40 0 50.40 0 1.05 -1.15 1.10 -1.15 0 -46.65 0 -46.65 1.45 -1.45 1.45 -1.45 33.25 0 c32.85 0 33.25 0 34.55 1.05 l1.30 1 0 14.65 0 14.65 -1.15 1.05 c-1.15 1.10 -1.40 1.10 -18.50 1.10 -17.15 0 -17.30 0 -18.35 1.10 -1 1.05 -1 1.60 -1 31.45 l0 30.40 1.30 1 c1.30 1 1.90 1.05 16.25 1.05 14.80 0 14.90 0 15.65 1.10 0.70 0.95 0.80 3.20 0.80 14.75 0 8.95 -0.20 14 -0.55 14.85 -0.35 0.75 -1.15 1.30 -2.10 1.50 -0.85 0.20 -7.90 0.35 -15.60 0.45 -12.40 0.10 -14.15 0.20 -14.90 0.95 -0.75 0.75 -0.85 2.40 -0.85 14.60 0 13.65 0 13.75 -1.10 14.50 -0.95 0.70 -3.25 0.80 -15.05 0.80 l-13.90 0 -1.20 -1.25 -1.25 -1.20 0 -13.05 0 -13.05 -1.25 -1.20 -1.20 -1.25 -18.15 0 c-13.65 0 -18.45 0.15 -19.40 0.65 l-1.25 0.65 -0.15 14.05 c-0.10 12.30 -0.20 14.15 -0.95 14.70 -0.60 0.55 -4.05 0.75 -14.95 0.95 -12.20 0.20 -14.30 0.35 -15 1.05 -0.70 0.75 -0.80 2.60 -0.85 14.30 -0.10 10.60 -0.25 13.65 -0.80 14.30 -0.60 0.75 -2.30 0.85 -15.10 0.85 -14.30 0 -14.40 0 -15.15 -1.10z"/>
  <path d="M390.50 188.85 l-1.25 -0.65 -0.25 -15.55 c-0.25 -14.40 -0.30 -15.65 -1.20 -16.60 -0.90 -1 -1.40 -1.05 -13.60 -1.05 -13.30 0 -14.85 -0.25 -15.40 -2.20 -0.15 -0.55 -0.30 -7.40 -0.30 -15.15 l0 -14.10 1.35 -1.05 c1.30 -1 1.50 -1 30.75 -0.90 l29.45 0.15 0.95 1.25 c0.95 1.20 1 2.30 0.85 32.90 l-0.10 31.70 -1.20 0.95 c-1.10 0.90 -2.10 0.95 -15 0.95 -10.10 0 -14.15 -0.20 -15.05 -0.65z"/>
 </g>
 <g fill="#2c7cbf">
  <path d="M713.50 633.45 c-10.85 -0.60 -17.70 -1.60 -31 -4.45 -3.35 -0.70 -9.25 -2.40 -14.75 -4.20 -5.35 -1.80 -6.15 -2.10 -8.75 -3.20 -0.70 -0.30 -2.70 -1.15 -4.45 -1.85 -5.55 -2.30 -14.90 -7.05 -21.45 -11 -26.30 -15.70 -48.80 -38.85 -63.30 -65.05 -13.05 -23.65 -20.80 -50.40 -22.05 -75.95 -0.20 -3.55 -0.40 -7.05 -0.45 -7.75 -0.25 -2 0.60 -19.30 1.20 -24.25 3.75 -31.60 16.15 -61.25 34.95 -83.75 1.95 -2.35 3.70 -4.70 3.80 -5.25 0.15 -0.55 0.30 -24.95 0.40 -54.25 0.15 -34.55 0.40 -54.15 0.70 -55.75 0.30 -1.35 0.80 -4.20 1.15 -6.25 4.25 -26.80 19 -55.55 38.35 -74.75 21.45 -21.30 44.80 -32.95 75.65 -37.80 6.25 -1 9.15 -1.15 21.25 -1.15 14.05 -0.05 14.20 0 27.25 2.15 10.90 1.80 23.95 6.25 35.55 12.10 34.30 17.25 61.50 52.15 70.40 90.45 3.80 16.50 3.95 18.45 4 76.70 l0.05 49.50 2.15 2.70 c4.95 6.40 9.60 13.15 12.90 18.70 3.55 5.95 9.05 17 10.95 22 0.55 1.45 1.25 3.10 1.50 3.65 0.85 1.80 4.35 12.85 5.95 18.75 4.25 15.85 6.20 36.45 5.10 54 -0.85 13.70 -2.65 25.75 -5.40 36 -0.40 1.50 -0.90 3.45 -1.10 4.25 -1.90 7.45 -8.75 24.60 -13 32.50 -7.80 14.55 -16.55 26.50 -28.10 38.45 -20.40 21.10 -44 36.20 -71.45 45.55 -15.10 5.15 -27.10 7.60 -44.25 9 -9.70 0.80 -13.35 0.80 -23.75 0.20z m57.85 -72.15 c1.75 -1.60 1.90 -1.90 1.85 -4.65 0 -2.35 -6.65 -34.20 -8.70 -41.65 -0.45 -1.70 -6.10 -27.10 -8.05 -36.25 -0.55 -2.45 -1.25 -5.70 -1.65 -7.20 l-0.70 -2.65 1.50 -0.85 c3.20 -1.75 9.45 -6.65 13.20 -10.45 8.95 -8.90 14.55 -20.05 16.45 -32.60 1.90 -12.25 -0.10 -24.20 -5.85 -35.70 -8.10 -16.20 -22.10 -27.25 -40.35 -31.90 -5.60 -1.40 -6.10 -1.45 -14.80 -1.25 -9.40 0.20 -14.25 1.10 -21.10 3.80 -18.25 7.20 -32.40 23.05 -37.05 41.55 -3.95 15.50 -1.55 31.95 6.50 45.35 4.35 7.25 11.90 14.95 19.60 20 1.95 1.30 3.65 2.40 3.75 2.45 0.25 0.20 -3.45 18.40 -5.45 26.95 -0.25 1.10 -1.30 5.85 -2.25 10.50 -1 4.70 -2.45 11.60 -3.30 15.40 -3.50 16.45 -4.55 21.20 -4.90 23.10 -0.25 1.10 -0.85 3.85 -1.30 6.10 -1.10 5.20 -0.75 7.05 1.70 9.65 l1.90 2 43.60 0 43.55 0 1.85 -1.70z m-114.85 -266.70 c6.45 -2.80 20.15 -7.50 26.25 -9.10 4.30 -1.10 15.05 -3 22.75 -4.05 6.35 -0.90 31.40 -0.90 39 -0.05 5.30 0.60 11.90 1.65 15.35 2.35 15.70 3.40 27.65 7.50 40.10 13.85 3.70 1.85 7.15 3.40 7.65 3.40 0.90 0 0.95 -0.90 0.80 -29.10 -0.20 -28.05 -0.25 -29.35 -1.30 -34.30 -3.35 -15.20 -9.75 -28.20 -19.45 -39.35 -11 -12.65 -27.95 -22.90 -43.40 -26.20 -9.55 -2.05 -10.70 -2.20 -19.75 -2.20 -8.90 0 -10.45 0.20 -20.20 2.15 -3.90 0.80 -12.70 3.95 -16.95 6.05 -8.65 4.40 -14.20 8.30 -21.30 15.15 -15.60 15.15 -24.30 34.35 -25.45 56.35 -0.20 3.45 -0.25 16.40 -0.10 28.70 0.30 26.25 -0.25 24.40 6.25 20.95 2.20 -1.20 6.60 -3.25 9.75 -4.60z"/>
 </g>
</svg>